<mxfile host="app.diagrams.net" modified="2023-05-08T14:20:57.786Z" agent="Mozilla/5.0 (Windows NT 10.0; Win64; x64) AppleWebKit/537.36 (KHTML, like Gecko) Chrome/112.0.0.0 Safari/537.36" etag="ubSDDZOJbmoMNY1gATF7" version="21.2.9" type="github">
  <diagram name="Page-1" id="8pNGvQS8ixRPLjRz_s9t">
    <mxGraphModel dx="1434" dy="764" grid="1" gridSize="10" guides="1" tooltips="1" connect="1" arrows="1" fold="1" page="1" pageScale="1" pageWidth="827" pageHeight="1169" math="0" shadow="0">
      <root>
        <mxCell id="0" />
        <mxCell id="1" parent="0" />
        <mxCell id="srnwT7MWpEYZGiNiFp5y-1" value="" style="shape=partialRectangle;whiteSpace=wrap;html=1;bottom=0;right=0;fillColor=none;" vertex="1" parent="1">
          <mxGeometry x="240" y="40" width="120" height="60" as="geometry" />
        </mxCell>
        <mxCell id="srnwT7MWpEYZGiNiFp5y-2" value="" style="shape=partialRectangle;whiteSpace=wrap;html=1;top=0;left=0;fillColor=none;" vertex="1" parent="1">
          <mxGeometry x="440" y="40" width="120" height="60" as="geometry" />
        </mxCell>
        <mxCell id="srnwT7MWpEYZGiNiFp5y-4" value="&lt;font face=&quot;Georgia&quot; style=&quot;font-size: 48px;&quot;&gt;RC Car build&lt;/font&gt;" style="text;strokeColor=none;align=center;fillColor=none;html=1;verticalAlign=middle;whiteSpace=wrap;rounded=0;" vertex="1" parent="1">
          <mxGeometry x="254" y="55" width="320" height="30" as="geometry" />
        </mxCell>
        <mxCell id="srnwT7MWpEYZGiNiFp5y-6" value="&lt;font style=&quot;&quot;&gt;&lt;b style=&quot;font-size: 36px;&quot;&gt;Reciever&lt;/b&gt;&lt;br&gt;&lt;font style=&quot;font-size: 18px;&quot;&gt;Rx&lt;/font&gt;&lt;br&gt;&lt;/font&gt;" style="rounded=1;whiteSpace=wrap;html=1;" vertex="1" parent="1">
          <mxGeometry x="332" y="410" width="164" height="80" as="geometry" />
        </mxCell>
        <mxCell id="srnwT7MWpEYZGiNiFp5y-7" value="Lithium&amp;nbsp;&lt;br&gt;&lt;font style=&quot;font-size: 24px;&quot;&gt;&lt;b&gt;Battery&lt;/b&gt;&lt;/font&gt;" style="shape=process;whiteSpace=wrap;html=1;backgroundOutline=1;" vertex="1" parent="1">
          <mxGeometry x="354" y="280" width="120" height="60" as="geometry" />
        </mxCell>
        <mxCell id="srnwT7MWpEYZGiNiFp5y-12" value="" style="endArrow=classic;startArrow=classic;html=1;rounded=0;entryX=0.558;entryY=1;entryDx=0;entryDy=0;exitX=0.555;exitY=0.038;exitDx=0;exitDy=0;exitPerimeter=0;entryPerimeter=0;" edge="1" parent="1" source="srnwT7MWpEYZGiNiFp5y-6" target="srnwT7MWpEYZGiNiFp5y-7">
          <mxGeometry width="50" height="50" relative="1" as="geometry">
            <mxPoint x="390" y="390" as="sourcePoint" />
            <mxPoint x="440" y="340" as="targetPoint" />
          </mxGeometry>
        </mxCell>
        <mxCell id="srnwT7MWpEYZGiNiFp5y-13" value="&lt;font style=&quot;font-size: 18px;&quot;&gt;Switch&lt;/font&gt;" style="shape=tape;whiteSpace=wrap;html=1;rotation=0;" vertex="1" parent="1">
          <mxGeometry x="170" y="330" width="110" height="95" as="geometry" />
        </mxCell>
        <mxCell id="srnwT7MWpEYZGiNiFp5y-14" value="" style="endArrow=classic;startArrow=classic;html=1;rounded=0;entryX=0;entryY=0;entryDx=0;entryDy=0;exitX=1;exitY=0.5;exitDx=0;exitDy=0;exitPerimeter=0;" edge="1" parent="1" source="srnwT7MWpEYZGiNiFp5y-13" target="srnwT7MWpEYZGiNiFp5y-6">
          <mxGeometry width="50" height="50" relative="1" as="geometry">
            <mxPoint x="390" y="390" as="sourcePoint" />
            <mxPoint x="440" y="340" as="targetPoint" />
          </mxGeometry>
        </mxCell>
        <mxCell id="srnwT7MWpEYZGiNiFp5y-27" value="3-5V motor" style="shape=datastore;whiteSpace=wrap;html=1;rotation=0;" vertex="1" parent="1">
          <mxGeometry x="380" y="180" width="60" height="60" as="geometry" />
        </mxCell>
        <mxCell id="srnwT7MWpEYZGiNiFp5y-28" value="3-5V&lt;br&gt;motor" style="shape=datastore;whiteSpace=wrap;html=1;" vertex="1" parent="1">
          <mxGeometry x="384" y="555" width="60" height="60" as="geometry" />
        </mxCell>
        <mxCell id="srnwT7MWpEYZGiNiFp5y-30" value="" style="endArrow=classic;startArrow=classic;html=1;rounded=0;entryX=1.033;entryY=0.867;entryDx=0;entryDy=0;entryPerimeter=0;exitX=0.823;exitY=-0.037;exitDx=0;exitDy=0;exitPerimeter=0;" edge="1" parent="1" source="srnwT7MWpEYZGiNiFp5y-6" target="srnwT7MWpEYZGiNiFp5y-27">
          <mxGeometry width="50" height="50" relative="1" as="geometry">
            <mxPoint x="490" y="360" as="sourcePoint" />
            <mxPoint x="540" y="310" as="targetPoint" />
            <Array as="points">
              <mxPoint x="520" y="320" />
            </Array>
          </mxGeometry>
        </mxCell>
        <mxCell id="srnwT7MWpEYZGiNiFp5y-31" value="" style="endArrow=classic;startArrow=classic;html=1;rounded=0;exitX=0.15;exitY=0.05;exitDx=0;exitDy=0;exitPerimeter=0;" edge="1" parent="1" source="srnwT7MWpEYZGiNiFp5y-28">
          <mxGeometry width="50" height="50" relative="1" as="geometry">
            <mxPoint x="380" y="540" as="sourcePoint" />
            <mxPoint x="430" y="490" as="targetPoint" />
          </mxGeometry>
        </mxCell>
        <mxCell id="srnwT7MWpEYZGiNiFp5y-32" value="&lt;font style=&quot;font-size: 18px;&quot;&gt;For steering the car&lt;/font&gt;" style="text;html=1;strokeColor=#6c8ebf;fillColor=#dae8fc;align=center;verticalAlign=middle;whiteSpace=wrap;rounded=0;" vertex="1" parent="1">
          <mxGeometry x="454" y="195" width="174" height="30" as="geometry" />
        </mxCell>
        <mxCell id="srnwT7MWpEYZGiNiFp5y-33" value="&lt;span style=&quot;font-size: 18px;&quot;&gt;Car&#39;s engine&lt;/span&gt;" style="text;html=1;strokeColor=#6c8ebf;fillColor=#dae8fc;align=center;verticalAlign=middle;whiteSpace=wrap;rounded=0;" vertex="1" parent="1">
          <mxGeometry x="454" y="570" width="106" height="30" as="geometry" />
        </mxCell>
      </root>
    </mxGraphModel>
  </diagram>
</mxfile>
